<?xml version="1.0" encoding="UTF-8" standalone="no"?>
<svg
   xmlns:dc="http://purl.org/dc/elements/1.1/"
   xmlns:cc="http://creativecommons.org/ns#"
   xmlns:rdf="http://www.w3.org/1999/02/22-rdf-syntax-ns#"
   xmlns:svg="http://www.w3.org/2000/svg"
   xmlns="http://www.w3.org/2000/svg"
   width="128"
   height="128"
   version="1.1">
  <title>Parabola Official Icon (Default Color)</title>
  <metadata>
    <rdf:RDF>
      <cc:Work
         rdf:about="">
        <dc:format>image/svg+xml</dc:format>
        <dc:type
           rdf:resource="http://purl.org/dc/dcmitype/StillImage" />
        <dc:title>Parabola Official Icon (Default Color)</dc:title>
        <cc:license
           rdf:resource="https://projects.parabola.nu/pac.git/tree/COPYING" />
        <dc:date>2013/04/18</dc:date>
        <dc:creator>
          <cc:Agent>
            <dc:title>Jorge Araya Navarro &lt;elcorreo@deshackra.com&gt;</dc:title>
          </cc:Agent>
        </dc:creator>
        <dc:subject>
          <rdf:Bag>
            <rdf:li>Parabola</rdf:li>
          </rdf:Bag>
        </dc:subject>
      </cc:Work>
    </rdf:RDF>
  </metadata>
  <path
     id="path_parabola_officialIcon-default_r128px2_p128x108d029px"
     d="M 102.35682,9.9854491 C 99.055889,10.30085 95.551179,10.88055 91.895457,11.65375 l -23.160314,23.7687 c 2.654698,0.3194 5.084183,0.8466 7.301382,1.5898 L 102.35682,9.9854491 Z M 118.6672,11.32005 86.615686,44.19595 c 9.014162,11.6817 5.838889,35.1472 -13.130709,73.8186 14.034627,-15.3203 75.286163,-91.4538 47.262723,-105.8112 -0.65063,-0.3334 -1.36211,-0.6201 -2.0805,-0.8833 z m -42.709175,4.6321 c -4.433778,1.4109 -8.946756,3.0104 -13.444753,4.7105 l -15.328993,15.7216 c 3.516251,-0.5701 6.850267,-0.9533 9.990339,-1.158 l 18.783407,-19.2741 z m -22.983666,8.4593 C 25.008407,35.91495 5.4836769e-5,49.96635 5.4836769e-5,49.96635 14.856262,44.39885 28.273382,40.23685 39.981026,37.73855 l 12.993333,-13.3271 z"
     style="fill:#787dab" />
</svg>
